<svg xmlns="http://www.w3.org/2000/svg" width="820" height="420" viewBox="0 0 820 420"><style>* {
          font-family: 'Segoe UI', Ubuntu, "Helvetica Neue", Sans-Serif
        }</style><rect x="1" y="1" rx="5" ry="5" height="99.52380952380952%" width="99.7560975609756%" stroke="#2e343b" stroke-width="1" fill="#0d1117" stroke-opacity="1"></rect><text x="30" y="40" style="font-size: 22px; fill: #0366d6;">0doyun (Gong)</text><g transform="translate(0,40)"><defs><linearGradient id="combinedAreaGradient" x1="0" y1="0" x2="0" y2="1"><stop offset="0%" stop-color="#40c463" stop-opacity="0.85"></stop><stop offset="100%" stop-color="#40c463" stop-opacity="0.05"></stop></linearGradient><linearGradient id="combinedBarGradient" x1="0" y1="0" x2="0" y2="1"><stop offset="0%" stop-color="#40c463" stop-opacity="1"></stop><stop offset="100%" stop-color="#40c463" stop-opacity="0.5"></stop></linearGradient></defs><g transform="translate(30,20)"><g transform="translate(0,0)" width="14" height="14" fill="#8b949e"><path fill-rule="evenodd" d="M2 2.5A2.5 2.5 0 014.5 0h8.75a.75.75 0 01.75.75v12.5a.75.75 0 01-.75.75h-2.5a.75.75 0 110-1.5h1.75v-2h-8a1 1 0 00-.714 1.7.75.75 0 01-1.072 1.05A2.495 2.495 0 012 11.5v-9zm10.5-1V9h-8c-.356 0-.694.074-1 .208V2.5a1 1 0 011-1h8zM5 12.25v3.25a.25.25 0 00.4.2l1.45-1.087a.25.25 0 01.3 0L8.6 15.7a.25.25 0 00.4-.2v-3.25a.25.25 0 00-.25-.25h-3.5a.25.25 0 00-.25.25z"></path></g><g transform="translate(0,28)" width="14" height="14" fill="#8b949e"><path fill-rule="evenodd" d="M8 .25a.75.75 0 01.673.418l1.882 3.815 4.21.612a.75.75 0 01.416 1.279l-3.046 2.97.719 4.192a.75.75 0 01-1.088.791L8 12.347l-3.766 1.98a.75.75 0 01-1.088-.79l.72-4.194L.818 6.374a.75.75 0 01.416-1.28l4.21-.611L7.327.668A.75.75 0 018 .25zm0 2.445L6.615 5.5a.75.75 0 01-.564.41l-3.097.45 2.24 2.184a.75.75 0 01.216.664l-.528 3.084 2.769-1.456a.75.75 0 01.698 0l2.77 1.456-.53-3.084a.75.75 0 01.216-.664l2.24-2.183-3.096-.45a.75.75 0 01-.564-.41L8 2.694v.001z"></path></g><g transform="translate(0,56)" width="14" height="14" fill="#8b949e"><path fill-rule="evenodd" d="M1.5 8a6.5 6.5 0 1113 0 6.5 6.5 0 01-13 0zM8 0a8 8 0 100 16A8 8 0 008 0zm.5 4.75a.75.75 0 00-1.5 0v3.5a.75.75 0 00.471.696l2.5 1a.75.75 0 00.557-1.392L8.5 7.742V4.75z"></path></g><g transform="translate(0,84)" width="14" height="14" fill="#8b949e"><path fill-rule="evenodd" d="M11.536 3.464a5 5 0 010 7.072L8 14.07l-3.536-3.535a5 5 0 117.072-7.072v.001zm1.06 8.132a6.5 6.5 0 10-9.192 0l3.535 3.536a1.5 1.5 0 002.122 0l3.535-3.536zM8 9a2 2 0 100-4 2 2 0 000 4z"></path></g><text x="21" y="14" style="fill: #77909c; font-size: 14px;">29 Public Repos</text><text x="21" y="42" style="fill: #77909c; font-size: 14px;">9 Stars Earned</text><text x="21" y="70" style="fill: #77909c; font-size: 14px;">Joined GitHub 5 years ago</text><text x="21" y="98" style="fill: #77909c; font-size: 14px;">Seoul, Korea</text></g><g transform="translate(320,20)"><text x="0" y="-4" style="fill: #77909c; font-size: 10px; opacity: 0.7;">Contributions in the last year</text><path fill="url(#combinedAreaGradient)" stroke="none" d="M0,101.38333333333333C12.054794520547944,84.05833333333334,24.109589041095887,66.73333333333333,36.16438356164383,66.73333333333333C48.62100456621004,66.73333333333333,61.077625570776256,74.98333333333333,73.53424657534246,74.98333333333333C85.58904109589041,74.98333333333333,97.64383561643835,74.92222222222222,109.6986301369863,74.8C122.15525114155251,74.6737037037037,134.6118721461187,51.76111111111112,147.06849315068493,45.650000000000006C159.52511415525115,39.53888888888889,171.98173515981733,36.483333333333334,184.43835616438355,36.483333333333334C196.4931506849315,36.483333333333334,208.54794520547946,68.93333333333334,220.6027397260274,68.93333333333334C233.05936073059362,68.93333333333334,245.5159817351598,62.516666666666666,257.972602739726,62.516666666666666C270.027397260274,62.516666666666666,282.0821917808219,66.73776073799871,294.13698630136986,70.4C306.5936073059361,74.184313904068,319.0502283105023,81.58333333333333,331.5068493150685,85.06666666666666C343.9634703196347,88.54999999999998,356.4200913242009,91.3,368.8767123287671,91.3C380.1278538812785,91.3,391.37899543378995,0.5500000000000005,402.63013698630135,0.5500000000000005C415.08675799086757,0.5500000000000005,427.5433789954338,12.649999999999997,440,24.749999999999996L440,110C427.5433789954338,110,415.08675799086757,110,402.63013698630135,110C391.37899543378995,110,380.1278538812785,110,368.8767123287671,110C356.4200913242009,110,343.9634703196347,110,331.5068493150685,110C319.0502283105023,110,306.5936073059361,110,294.13698630136986,110C282.0821917808219,110,270.027397260274,110,257.972602739726,110C245.5159817351598,110,233.05936073059362,110,220.6027397260274,110C208.54794520547946,110,196.4931506849315,110,184.43835616438355,110C171.98173515981733,110,159.52511415525115,110,147.06849315068493,110C134.6118721461187,110,122.15525114155251,110,109.6986301369863,110C97.64383561643835,110,85.58904109589041,110,73.53424657534246,110C61.077625570776256,110,48.62100456621004,110,36.16438356164383,110C24.109589041095887,110,12.054794520547944,110,0,110Z"></path><path fill="none" stroke="#40c463" stroke-width="1.5" opacity="0.95" d="M0,101.38333333333333C12.054794520547944,84.05833333333334,24.109589041095887,66.73333333333333,36.16438356164383,66.73333333333333C48.62100456621004,66.73333333333333,61.077625570776256,74.98333333333333,73.53424657534246,74.98333333333333C85.58904109589041,74.98333333333333,97.64383561643835,74.92222222222222,109.6986301369863,74.8C122.15525114155251,74.6737037037037,134.6118721461187,51.76111111111112,147.06849315068493,45.650000000000006C159.52511415525115,39.53888888888889,171.98173515981733,36.483333333333334,184.43835616438355,36.483333333333334C196.4931506849315,36.483333333333334,208.54794520547946,68.93333333333334,220.6027397260274,68.93333333333334C233.05936073059362,68.93333333333334,245.5159817351598,62.516666666666666,257.972602739726,62.516666666666666C270.027397260274,62.516666666666666,282.0821917808219,66.73776073799871,294.13698630136986,70.4C306.5936073059361,74.184313904068,319.0502283105023,81.58333333333333,331.5068493150685,85.06666666666666C343.9634703196347,88.54999999999998,356.4200913242009,91.3,368.8767123287671,91.3C380.1278538812785,91.3,391.37899543378995,0.5500000000000005,402.63013698630135,0.5500000000000005C415.08675799086757,0.5500000000000005,427.5433789954338,12.649999999999997,440,24.749999999999996"></path><g transform="translate(0,116)" fill="none" font-size="10" font-family="sans-serif" text-anchor="middle"><g class="tick" opacity="1" transform="translate(0.5,0)"><line stroke="currentColor" y2="0"></line><text fill="currentColor" y="3" dy="0.71em" style="fill: #77909c; opacity: 0.7; font-size: 9px;">Apr</text></g><g class="tick" opacity="1" transform="translate(74.03424657534246,0)"><line stroke="currentColor" y2="0"></line><text fill="currentColor" y="3" dy="0.71em" style="fill: #77909c; opacity: 0.7; font-size: 9px;">Jun</text></g><g class="tick" opacity="1" transform="translate(147.56849315068493,0)"><line stroke="currentColor" y2="0"></line><text fill="currentColor" y="3" dy="0.71em" style="fill: #77909c; opacity: 0.7; font-size: 9px;">Aug</text></g><g class="tick" opacity="1" transform="translate(221.1027397260274,0)"><line stroke="currentColor" y2="0"></line><text fill="currentColor" y="3" dy="0.71em" style="fill: #77909c; opacity: 0.7; font-size: 9px;">Oct</text></g><g class="tick" opacity="1" transform="translate(294.63698630136986,0)"><line stroke="currentColor" y2="0"></line><text fill="currentColor" y="3" dy="0.71em" style="fill: #77909c; opacity: 0.7; font-size: 9px;">Dec</text></g><g class="tick" opacity="1" transform="translate(369.3767123287671,0)"><line stroke="currentColor" y2="0"></line><text fill="currentColor" y="3" dy="0.71em" style="fill: #77909c; opacity: 0.7; font-size: 9px;">Feb</text></g><g class="tick" opacity="1" transform="translate(440.5,0)"><line stroke="currentColor" y2="0"></line><text fill="currentColor" y="3" dy="0.71em" style="fill: #77909c; opacity: 0.7; font-size: 9px;">Apr</text></g></g><g transform="translate(446,0)" fill="none" font-size="10" font-family="sans-serif" text-anchor="start"><g class="tick" opacity="1" transform="translate(0,110.5)"><line stroke="currentColor" x2="0"></line><text fill="currentColor" x="3" dy="0.32em" style="fill: #77909c; opacity: 0.7; font-size: 9px;">0</text></g><g class="tick" opacity="1" transform="translate(0,73.83333333333334)"><line stroke="currentColor" x2="0"></line><text fill="currentColor" x="3" dy="0.32em" style="fill: #77909c; opacity: 0.7; font-size: 9px;">200</text></g><g class="tick" opacity="1" transform="translate(0,37.16666666666667)"><line stroke="currentColor" x2="0"></line><text fill="currentColor" x="3" dy="0.32em" style="fill: #77909c; opacity: 0.7; font-size: 9px;">400</text></g><g class="tick" opacity="1" transform="translate(0,0.5)"><line stroke="currentColor" x2="0"></line><text fill="currentColor" x="3" dy="0.32em" style="fill: #77909c; opacity: 0.7; font-size: 9px;">600</text></g></g></g><line x1="30" y1="175" x2="790" y2="175" stroke="#77909c" stroke-opacity="0.12" stroke-width="1"></line><g transform="translate(20,195)"><rect x="8" y="10" width="3" height="58" rx="1.5" fill="#0366d6"></rect><text x="20" y="24" style="fill: #0366d6; font-size: 11px; font-weight: 600; letter-spacing: 1.5px;">TOTAL CONTRIBUTIONS</text><text x="20" y="70" style="fill: #0366d6; font-size: 44px; font-weight: 700;">7,800</text><text x="135" y="68" style="fill: #77909c; font-size: 11px; opacity: 0.65;">Since Jun 24, 2020</text><rect x="8" y="90" width="3" height="58" rx="1.5" fill="#40c463"></rect><text x="20" y="104" style="fill: #40c463; font-size: 11px; font-weight: 600; letter-spacing: 1.5px;">CURRENT STREAK</text><text x="20" y="140" style="fill: #40c463; font-size: 34px; font-weight: 700;">37</text><text x="72" y="138" style="fill: #77909c; font-size: 11px; opacity: 0.65;">Mar 23, 2026 – Apr 28, 2026</text><text x="20" y="164" style="fill: #77909c; font-size: 10px; opacity: 0.55;">Longest streak 37  ·  Mar 23, 2026 – Apr 28, 2026</text></g><line x1="340" y1="195" x2="340" y2="380" stroke="#77909c" stroke-opacity="0.12" stroke-width="1"></line><g transform="translate(360,195)"><text x="0" y="14" style="fill: #77909c; font-size: 10px; font-weight: 600; letter-spacing: 1.5px; opacity: 0.75;">Commits by hour · UTC +9</text><g transform="translate(24,30)"><line x1="0" x2="416" y1="62.5" y2="62.5" stroke="#77909c" stroke-opacity="0.08" stroke-width="1"></line><rect class="bar" fill="url(#combinedBarGradient)" opacity="1" rx="1.5" ry="1.5" x="3.4380165289256297" y="100" width="13.75206611570248" height="25"></rect><rect class="bar" fill="url(#combinedBarGradient)" opacity="1" rx="1.5" ry="1.5" x="20.62809917355373" y="85.71428571428571" width="13.75206611570248" height="39.28571428571429"></rect><rect class="bar" fill="url(#combinedBarGradient)" opacity="1" rx="1.5" ry="1.5" x="37.81818181818183" y="92.85714285714286" width="13.75206611570248" height="32.14285714285714"></rect><rect class="bar" fill="url(#combinedBarGradient)" opacity="0.15" rx="1.5" ry="1.5" x="55.008264462809926" y="123" width="13.75206611570248" height="2"></rect><rect class="bar" fill="url(#combinedBarGradient)" opacity="0.15" rx="1.5" ry="1.5" x="72.19834710743802" y="123" width="13.75206611570248" height="2"></rect><rect class="bar" fill="url(#combinedBarGradient)" opacity="0.15" rx="1.5" ry="1.5" x="89.38842975206612" y="123" width="13.75206611570248" height="2"></rect><rect class="bar" fill="url(#combinedBarGradient)" opacity="0.15" rx="1.5" ry="1.5" x="106.57851239669422" y="123" width="13.75206611570248" height="2"></rect><rect class="bar" fill="url(#combinedBarGradient)" opacity="0.15" rx="1.5" ry="1.5" x="123.76859504132233" y="123" width="13.75206611570248" height="2"></rect><rect class="bar" fill="url(#combinedBarGradient)" opacity="1" rx="1.5" ry="1.5" x="140.95867768595042" y="57.142857142857146" width="13.75206611570248" height="67.85714285714286"></rect><rect class="bar" fill="url(#combinedBarGradient)" opacity="1" rx="1.5" ry="1.5" x="158.1487603305785" y="78.57142857142857" width="13.75206611570248" height="46.42857142857143"></rect><rect class="bar" fill="url(#combinedBarGradient)" opacity="0.15" rx="1.5" ry="1.5" x="175.3388429752066" y="123" width="13.75206611570248" height="2"></rect><rect class="bar" fill="url(#combinedBarGradient)" opacity="1" rx="1.5" ry="1.5" x="192.52892561983472" y="110.71428571428571" width="13.75206611570248" height="14.285714285714292"></rect><rect class="bar" fill="url(#combinedBarGradient)" opacity="1" rx="1.5" ry="1.5" x="209.71900826446281" y="89.28571428571429" width="13.75206611570248" height="35.71428571428571"></rect><rect class="bar" fill="url(#combinedBarGradient)" opacity="1" rx="1.5" ry="1.5" x="226.9090909090909" y="67.85714285714286" width="13.75206611570248" height="57.14285714285714"></rect><rect class="bar" fill="url(#combinedBarGradient)" opacity="1" rx="1.5" ry="1.5" x="244.09917355371903" y="96.42857142857143" width="13.75206611570248" height="28.57142857142857"></rect><rect class="bar" fill="url(#combinedBarGradient)" opacity="1" rx="1.5" ry="1.5" x="261.2892561983471" y="121.42857142857143" width="13.75206611570248" height="3.5714285714285694"></rect><rect class="bar" fill="url(#combinedBarGradient)" opacity="0.15" rx="1.5" ry="1.5" x="278.4793388429752" y="123" width="13.75206611570248" height="2"></rect><rect class="bar" fill="url(#combinedBarGradient)" opacity="1" rx="1.5" ry="1.5" x="295.6694214876033" y="110.71428571428571" width="13.75206611570248" height="14.285714285714292"></rect><rect class="bar" fill="url(#combinedBarGradient)" opacity="1" rx="1.5" ry="1.5" x="312.8595041322314" y="71.42857142857143" width="13.75206611570248" height="53.57142857142857"></rect><rect class="bar" fill="url(#combinedBarGradient)" opacity="1" rx="1.5" ry="1.5" x="330.0495867768595" y="110.71428571428571" width="13.75206611570248" height="14.285714285714292"></rect><rect class="bar" fill="url(#combinedBarGradient)" opacity="1" rx="1.5" ry="1.5" x="347.2396694214876" y="89.28571428571429" width="13.75206611570248" height="35.71428571428571"></rect><rect class="bar" fill="url(#combinedBarGradient)" opacity="1" rx="1.5" ry="1.5" x="364.4297520661157" y="7.142857142857145" width="13.75206611570248" height="117.85714285714286"></rect><rect class="bar" fill="url(#combinedBarGradient)" opacity="1" rx="1.5" ry="1.5" x="381.6198347107438" y="42.857142857142854" width="13.75206611570248" height="82.14285714285714"></rect><rect class="bar" fill="url(#combinedBarGradient)" opacity="1" rx="1.5" ry="1.5" x="398.8099173553719" y="100" width="13.75206611570248" height="25"></rect><g transform="translate(0,129)" fill="none" font-size="10" font-family="sans-serif" text-anchor="middle"><g class="tick" opacity="1" transform="translate(10.31404958677687,0)"><line stroke="currentColor" y2="0"></line><text fill="currentColor" y="3" dy="0.71em" style="fill: #77909c; opacity: 0.7; font-size: 9px;">0</text></g><g class="tick" opacity="1" transform="translate(113.45454545454547,0)"><line stroke="currentColor" y2="0"></line><text fill="currentColor" y="3" dy="0.71em" style="fill: #77909c; opacity: 0.7; font-size: 9px;">6</text></g><g class="tick" opacity="1" transform="translate(216.59504132231405,0)"><line stroke="currentColor" y2="0"></line><text fill="currentColor" y="3" dy="0.71em" style="fill: #77909c; opacity: 0.7; font-size: 9px;">12</text></g><g class="tick" opacity="1" transform="translate(319.73553719008265,0)"><line stroke="currentColor" y2="0"></line><text fill="currentColor" y="3" dy="0.71em" style="fill: #77909c; opacity: 0.7; font-size: 9px;">18</text></g></g><g transform="translate(-4,0)" fill="none" font-size="10" font-family="sans-serif" text-anchor="end"><g class="tick" opacity="1" transform="translate(0,125.5)"><line stroke="currentColor" x2="0"></line><text fill="currentColor" x="-3" dy="0.32em" style="fill: #77909c; opacity: 0.7; font-size: 9px;">0</text></g><g class="tick" opacity="1" transform="translate(0,89.78571428571429)"><line stroke="currentColor" x2="0"></line><text fill="currentColor" x="-3" dy="0.32em" style="fill: #77909c; opacity: 0.7; font-size: 9px;">10</text></g><g class="tick" opacity="1" transform="translate(0,54.07142857142858)"><line stroke="currentColor" x2="0"></line><text fill="currentColor" x="-3" dy="0.32em" style="fill: #77909c; opacity: 0.7; font-size: 9px;">20</text></g><g class="tick" opacity="1" transform="translate(0,18.357142857142865)"><line stroke="currentColor" x2="0"></line><text fill="currentColor" x="-3" dy="0.32em" style="fill: #77909c; opacity: 0.7; font-size: 9px;">30</text></g></g></g></g></g></svg>