<svg viewBox="0 0 900 240" xmlns="http://www.w3.org/2000/svg">
  <defs>
    <linearGradient id="bg2" x1="0" y1="0" x2="1" y2="1">
      <stop offset="0%" stop-color="#000a12"/>
      <stop offset="100%" stop-color="#001824"/>
    </linearGradient>
    <linearGradient id="hline" x1="0" y1="0" x2="1" y2="0">
      <stop offset="0%" stop-color="#00aaff" stop-opacity="0"/>
      <stop offset="30%" stop-color="#00aaff" stop-opacity="0.9"/>
      <stop offset="70%" stop-color="#00aaff" stop-opacity="0.9"/>
      <stop offset="100%" stop-color="#00aaff" stop-opacity="0"/>
    </linearGradient>
    <filter id="blueglow">
      <feGaussianBlur stdDeviation="6" result="b"/>
      <feMerge><feMergeNode in="b"/><feMergeNode in="SourceGraphic"/></feMerge>
    </filter>
  </defs>

  <rect width="900" height="240" fill="url(#bg2)"/>

  <g fill="#00aaff" opacity="0.12">
    <circle cx="60"  cy="40"  r="1"/><circle cx="120" cy="40"  r="1"/><circle cx="180" cy="40"  r="1"/>
    <circle cx="240" cy="40"  r="1"/><circle cx="300" cy="40"  r="1"/><circle cx="360" cy="40"  r="1"/>
    <circle cx="420" cy="40"  r="1"/><circle cx="480" cy="40"  r="1"/><circle cx="540" cy="40"  r="1"/>
    <circle cx="600" cy="40"  r="1"/><circle cx="660" cy="40"  r="1"/><circle cx="720" cy="40"  r="1"/>
    <circle cx="780" cy="40"  r="1"/><circle cx="840" cy="40"  r="1"/>
    <circle cx="60"  cy="80"  r="1"/><circle cx="120" cy="80"  r="1"/><circle cx="180" cy="80"  r="1"/>
    <circle cx="240" cy="80"  r="1"/><circle cx="300" cy="80"  r="1"/><circle cx="360" cy="80"  r="1"/>
    <circle cx="420" cy="80"  r="1"/><circle cx="480" cy="80"  r="1"/><circle cx="540" cy="80"  r="1"/>
    <circle cx="600" cy="80"  r="1"/><circle cx="660" cy="80"  r="1"/><circle cx="720" cy="80"  r="1"/>
    <circle cx="780" cy="80"  r="1"/><circle cx="840" cy="80"  r="1"/>
    <circle cx="60"  cy="160" r="1"/><circle cx="120" cy="160" r="1"/><circle cx="180" cy="160" r="1"/>
    <circle cx="240" cy="160" r="1"/><circle cx="300" cy="160" r="1"/><circle cx="360" cy="160" r="1"/>
    <circle cx="420" cy="160" r="1"/><circle cx="480" cy="160" r="1"/><circle cx="540" cy="160" r="1"/>
    <circle cx="600" cy="160" r="1"/><circle cx="660" cy="160" r="1"/><circle cx="720" cy="160" r="1"/>
    <circle cx="780" cy="160" r="1"/><circle cx="840" cy="160" r="1"/>
    <circle cx="60"  cy="200" r="1"/><circle cx="120" cy="200" r="1"/><circle cx="180" cy="200" r="1"/>
    <circle cx="240" cy="200" r="1"/><circle cx="300" cy="200" r="1"/><circle cx="360" cy="200" r="1"/>
    <circle cx="420" cy="200" r="1"/><circle cx="480" cy="200" r="1"/><circle cx="540" cy="200" r="1"/>
    <circle cx="600" cy="200" r="1"/><circle cx="660" cy="200" r="1"/><circle cx="720" cy="200" r="1"/>
    <circle cx="780" cy="200" r="1"/><circle cx="840" cy="200" r="1"/>
  </g>

  <text x="80" y="148" font-family="'Courier New', monospace"
        font-size="80" fill="#00aaff" opacity="0.15" font-weight="700">{</text>
  <text x="780" y="148" font-family="'Courier New', monospace"
        font-size="80" fill="#00aaff" opacity="0.15" font-weight="700">}</text>

  <text x="40" y="52" font-family="'Courier New', monospace" font-size="11"
        fill="#00aaff" opacity="0.5">
    <tspan fill="#00aaff" opacity="0.4">~/dev/</tspan><tspan fill="#00aaff" opacity="0.8">0doyun</tspan>
    <tspan fill="#ffffff" opacity="0.3" dx="8">on main</tspan>
  </text>

  <rect x="40" y="62" width="820" height="0.5" fill="url(#hline)" opacity="0.4"/>

  <text x="450" y="138" text-anchor="middle"
        font-family="'Arial Black', Impact, sans-serif"
        font-size="72" font-weight="900"
        fill="#00aaff" letter-spacing="-2" filter="url(#blueglow)">0doyun</text>

  <rect x="40" y="162" width="820" height="0.5" fill="url(#hline)" opacity="0.4"/>

  <text x="40" y="185" font-family="'Courier New', monospace" font-size="12" fill="#00aaff"><animate attributeName="opacity" values="1;0;0;0;0;0;0;0;0;0;1" keyTimes="0;0.1;0.2;0.3;0.4;0.5;0.6;0.7;0.8;0.9;1" dur="0.8s" repeatCount="indefinite"/>⠋</text>
  <text x="40" y="185" font-family="'Courier New', monospace" font-size="12" fill="#00aaff"><animate attributeName="opacity" values="0;1;0;0;0;0;0;0;0;0;0" keyTimes="0;0.1;0.2;0.3;0.4;0.5;0.6;0.7;0.8;0.9;1" dur="0.8s" repeatCount="indefinite"/>⠙</text>
  <text x="40" y="185" font-family="'Courier New', monospace" font-size="12" fill="#00aaff"><animate attributeName="opacity" values="0;0;1;0;0;0;0;0;0;0;0" keyTimes="0;0.1;0.2;0.3;0.4;0.5;0.6;0.7;0.8;0.9;1" dur="0.8s" repeatCount="indefinite"/>⠹</text>
  <text x="40" y="185" font-family="'Courier New', monospace" font-size="12" fill="#00aaff"><animate attributeName="opacity" values="0;0;0;1;0;0;0;0;0;0;0" keyTimes="0;0.1;0.2;0.3;0.4;0.5;0.6;0.7;0.8;0.9;1" dur="0.8s" repeatCount="indefinite"/>⠸</text>
  <text x="40" y="185" font-family="'Courier New', monospace" font-size="12" fill="#00aaff"><animate attributeName="opacity" values="0;0;0;0;1;0;0;0;0;0;0" keyTimes="0;0.1;0.2;0.3;0.4;0.5;0.6;0.7;0.8;0.9;1" dur="0.8s" repeatCount="indefinite"/>⠼</text>
  <text x="40" y="185" font-family="'Courier New', monospace" font-size="12" fill="#00aaff"><animate attributeName="opacity" values="0;0;0;0;0;1;0;0;0;0;0" keyTimes="0;0.1;0.2;0.3;0.4;0.5;0.6;0.7;0.8;0.9;1" dur="0.8s" repeatCount="indefinite"/>⠴</text>
  <text x="40" y="185" font-family="'Courier New', monospace" font-size="12" fill="#00aaff"><animate attributeName="opacity" values="0;0;0;0;0;0;1;0;0;0;0" keyTimes="0;0.1;0.2;0.3;0.4;0.5;0.6;0.7;0.8;0.9;1" dur="0.8s" repeatCount="indefinite"/>⠦</text>
  <text x="40" y="185" font-family="'Courier New', monospace" font-size="12" fill="#00aaff"><animate attributeName="opacity" values="0;0;0;0;0;0;0;1;0;0;0" keyTimes="0;0.1;0.2;0.3;0.4;0.5;0.6;0.7;0.8;0.9;1" dur="0.8s" repeatCount="indefinite"/>⠧</text>
  <text x="40" y="185" font-family="'Courier New', monospace" font-size="12" fill="#00aaff"><animate attributeName="opacity" values="0;0;0;0;0;0;0;0;1;0;0" keyTimes="0;0.1;0.2;0.3;0.4;0.5;0.6;0.7;0.8;0.9;1" dur="0.8s" repeatCount="indefinite"/>⠇</text>
  <text x="40" y="185" font-family="'Courier New', monospace" font-size="12" fill="#00aaff"><animate attributeName="opacity" values="0;0;0;0;0;0;0;0;0;1;0" keyTimes="0;0.1;0.2;0.3;0.4;0.5;0.6;0.7;0.8;0.9;1" dur="0.8s" repeatCount="indefinite"/>⠏</text>
  <text x="56" y="185" font-family="'Courier New', monospace" font-size="12" fill="#ffffff"><animate attributeName="opacity" values="0.5;0.3;0.5" dur="2.4s" repeatCount="indefinite"/>Doodling...</text>
</svg>
